<?xml version="1.0" encoding="UTF-8"?>
<svg width="25px" height="25px" viewBox="0 0 25 25" version="1.1" xmlns="http://www.w3.org/2000/svg" xmlns:xlink="http://www.w3.org/1999/xlink">
    <title>Replay Button</title>
    <g id="Replay-Button" stroke="none" stroke-width="1" fill="none" fill-rule="evenodd">
        <rect id="Rectangle" fill="#002A54" x="0" y="0" width="25" height="25"></rect>
        <path d="M18.2352941,14.3735294 L20.1248824,11.9983529 L18.9747647,11.9983529 C18.7170588,8.64817647 15.9144118,6 12.5,6 C8.91582353,6 6,8.91582353 6,12.5 C6,16.0841765 8.91582353,19 12.5,19 C14.7864706,19 16.9307059,17.7764706 18.0968824,15.8073529 C18.3117647,15.4441176 18.1917059,14.9745882 17.8284706,14.7597059 C17.4652353,14.5448235 16.9957059,14.6648824 16.7808235,15.0281176 C15.8884118,16.5345882 14.2481176,17.4705882 12.5,17.4705882 C9.75929412,17.4705882 7.52941176,15.2407059 7.52941176,12.5 C7.52941176,9.75929412 9.75929412,7.52941176 12.5,7.52941176 C15.0709412,7.52941176 17.1922353,9.49241176 17.4445882,11.9983529 L16.3457059,11.9983529 L18.2352941,14.3735294 Z" id="Fill-1" fill="#CCCCCC"></path>
    </g>
</svg>